<?xml version="1.0" encoding="UTF-8"?>
<svg xmlns="http://www.w3.org/2000/svg" viewBox="0 0 512 512" fill="none">
  <rect width="512" height="512" rx="96" fill="#111827"/>
  <g transform="translate(84 84)">
    <rect x="0" y="0" width="56" height="56" rx="12" fill="#1f2937"/>
    <rect x="72" y="0" width="56" height="56" rx="12" fill="#10b981"/>
    <rect x="144" y="0" width="56" height="56" rx="12" fill="#10b981"/>
    <rect x="216" y="0" width="56" height="56" rx="12" fill="#10b981"/>
    <rect x="288" y="0" width="56" height="56" rx="12" fill="#1f2937"/>

    <rect x="0" y="72" width="56" height="56" rx="12" fill="#10b981"/>
    <rect x="72" y="72" width="56" height="56" rx="12" fill="#10b981"/>
    <rect x="144" y="72" width="56" height="56" rx="12" fill="#10b981"/>
    <rect x="216" y="72" width="56" height="56" rx="12" fill="#dc2626"/>
    <rect x="288" y="72" width="56" height="56" rx="12" fill="#10b981"/>

    <rect x="0" y="144" width="56" height="56" rx="12" fill="#10b981"/>
    <rect x="72" y="144" width="56" height="56" rx="12" fill="#1f2937"/>
    <rect x="144" y="144" width="56" height="56" rx="12" fill="#10b981"/>
    <rect x="216" y="144" width="56" height="56" rx="12" fill="#10b981"/>
    <rect x="288" y="144" width="56" height="56" rx="12" fill="#1f2937"/>

    <rect x="0" y="216" width="56" height="56" rx="12" fill="#10b981"/>
    <rect x="72" y="216" width="56" height="56" rx="12" fill="#1f2937"/>
    <rect x="144" y="216" width="56" height="56" rx="12" fill="#10b981"/>
    <rect x="216" y="216" width="56" height="56" rx="12" fill="#10b981"/>
    <rect x="288" y="216" width="56" height="56" rx="12" fill="#dc2626"/>

    <rect x="0" y="288" width="56" height="56" rx="12" fill="#dc2626"/>
    <rect x="72" y="288" width="56" height="56" rx="12" fill="#10b981"/>
    <rect x="144" y="288" width="56" height="56" rx="12" fill="#dc2626"/>
    <rect x="216" y="288" width="56" height="56" rx="12" fill="#1f2937"/>
    <rect x="288" y="288" width="56" height="56" rx="12" fill="#1f2937"/>
  </g>
</svg>
